<?xml version="1.0" encoding="UTF-8" standalone="no"?>

<svg
   xmlns:dc="http://purl.org/dc/elements/1.1/"
   xmlns:cc="http://creativecommons.org/ns#"
   xmlns:rdf="http://www.w3.org/1999/02/22-rdf-syntax-ns#"
   xmlns:svg="http://www.w3.org/2000/svg"
   xmlns="http://www.w3.org/2000/svg"
   xmlns:sodipodi="http://sodipodi.sourceforge.net/DTD/sodipodi-0.dtd"
   xmlns:inkscape="http://www.inkscape.org/namespaces/inkscape"
   width="105"
   height="16"
   viewBox="0 0 105 16"
   id="svg2"
   version="1.1"
   inkscape:version="0.91 r"
   sodipodi:docname="contact.svg"
   inkscape:export-filename="/home/gonggo/Documents/agung/contact.png"
   inkscape:export-xdpi="90"
   inkscape:export-ydpi="90">
  <defs
     id="defs4" />
  <sodipodi:namedview
     id="base"
     pagecolor="#ffffff"
     bordercolor="#666666"
     borderopacity="1.0"
     inkscape:pageopacity="0.0"
     inkscape:pageshadow="2"
     inkscape:zoom="1.979899"
     inkscape:cx="207.35253"
     inkscape:cy="-80.747393"
     inkscape:document-units="px"
     inkscape:current-layer="text4213"
     showgrid="false"
     units="px"
     inkscape:window-width="1366"
     inkscape:window-height="745"
     inkscape:window-x="0"
     inkscape:window-y="0"
     inkscape:window-maximized="1" />
  <metadata
     id="metadata7">
    <rdf:RDF>
      <cc:Work
         rdf:about="">
        <dc:format>image/svg+xml</dc:format>
        <dc:type
           rdf:resource="http://purl.org/dc/dcmitype/StillImage" />
        <dc:title></dc:title>
      </cc:Work>
    </rdf:RDF>
  </metadata>
  <g
     inkscape:label="Layer 1"
     inkscape:groupmode="layer"
     id="layer1"
     transform="translate(0,-1036.3622)">
    <g
       style="font-style:normal;font-weight:normal;font-size:17.5px;line-height:125%;font-family:sans-serif;letter-spacing:0px;word-spacing:0px;fill:#008080;fill-opacity:1;stroke:none;stroke-width:1px;stroke-linecap:butt;stroke-linejoin:miter;stroke-opacity:1"
       id="text4136">
      <g
         style="font-style:normal;font-weight:normal;font-size:16.25px;line-height:125%;font-family:sans-serif;letter-spacing:0px;word-spacing:0px;fill:#000000;fill-opacity:1;stroke:none;stroke-width:1px;stroke-linecap:butt;stroke-linejoin:miter;stroke-opacity:1"
         id="text4213">
        <path
           d="m 7.2952167,1041.6729 q 0.5053711,-0.9083 1.2084961,-1.3404 0.703125,-0.4321 1.6552732,-0.4321 1.281739,0 1.977539,0.9009 0.695801,0.8935 0.695801,2.5488 l 0,4.9512 -1.35498,0 0,-4.9073 q 0,-1.1792 -0.417481,-1.7504 -0.41748,-0.5713 -1.2744139,-0.5713 -1.0473633,0 -1.6552734,0.6958 -0.6079102,0.6958 -0.6079102,1.8969 l 0,4.6363 -1.3549804,0 0,-4.9073 q 0,-1.1865 -0.4174805,-1.7504 -0.4174805,-0.5713 -1.2890625,-0.5713 -1.0327149,0 -1.640625,0.7031 -0.6079102,0.6958 -0.6079102,1.8896 l 0,4.6363 -1.35498044,0 0,-8.2032 1.35498044,0 0,1.2745 q 0.4614258,-0.7544 1.1059571,-1.1133 0.6445312,-0.3589 1.5307617,-0.3589 0.8935547,0 1.5161133,0.4541 0.6298828,0.4541 0.9301757,1.3184 z"
           style="font-size:15px;letter-spacing:-1px;fill:#2a7ae2;fill-opacity:1"
           id="path4218" />
        <path
           d="m 21.54424,1043.8628 0,0.6592 -6.196289,0 q 0.08789,1.3916 0.834961,2.124 0.754395,0.7251 2.094727,0.7251 0.776367,0 1.501464,-0.1904 0.732422,-0.1905 1.450196,-0.5713 l 0,1.2744 q -0.725098,0.3076 -1.486817,0.4687 -0.761718,0.1612 -1.54541,0.1612 -1.96289,0 -3.112793,-1.1426 -1.142578,-1.1426 -1.142578,-3.0908 0,-2.0142 1.083984,-3.1934 1.091309,-1.1865 2.937012,-1.1865 1.655274,0 2.614746,1.0693 0.966797,1.062 0.966797,2.8931 z m -1.347656,-0.3955 q -0.01465,-1.106 -0.622559,-1.7652 -0.600586,-0.6591 -1.596679,-0.6591 -1.12793,0 -1.809082,0.6372 -0.673829,0.6372 -0.776368,1.7944 l 4.804688,-0.01 z"
           style="font-size:15px;letter-spacing:-1px;fill:#2a7ae2;fill-opacity:1"
           id="path4220" />
        <path
           d="m 26.923635,1044.3682 q 0,1.0473 0.520019,1.6479 0.52002,0.5933 1.428223,0.5933 0.900879,0 1.413574,-0.6006 0.52002,-0.6006 0.52002,-1.6406 0,-1.0254 -0.527344,-1.626 -0.527344,-0.6079 -1.420899,-0.6079 -0.88623,0 -1.413574,0.6006 -0.520019,0.6005 -0.520019,1.6333 z m 3.991699,2.1899 q -0.439453,0.564 -1.010742,0.835 -0.563965,0.2636 -1.31836,0.2636 -1.259765,0 -2.050781,-0.9082 -0.783691,-0.9155 -0.783691,-2.3803 0,-1.4649 0.791015,-2.3804 0.791016,-0.9155 2.043457,-0.9155 0.754395,0 1.325684,0.2783 0.571289,0.271 1.003418,0.8276 l 0,-0.9594 1.047363,0 0,5.3906 q 1.069336,-0.1612 1.669922,-0.9741 0.60791,-0.8204 0.60791,-2.1167 0,-0.7837 -0.234375,-1.4722 -0.227051,-0.6885 -0.695801,-1.2744 -0.761718,-0.9595 -1.860351,-1.4649 -1.091309,-0.5127 -2.380371,-0.5127 -0.900879,0 -1.728516,0.2417 -0.827637,0.2344 -1.530762,0.7032 -1.149902,0.747 -1.801757,1.9628 -0.644532,1.2085 -0.644532,2.6221 0,1.1646 0.417481,2.1826 0.424805,1.0181 1.223144,1.7945 0.769043,0.7617 1.779786,1.1572 1.010742,0.4028 2.160644,0.4028 0.944824,0 1.853027,-0.3222 0.915528,-0.315 1.677247,-0.9082 l 0.659179,0.8129 q -0.915527,0.7105 -1.999512,1.084 -1.07666,0.3809 -2.189941,0.3809 -1.35498,0 -2.556152,-0.4834 -1.201172,-0.4761 -2.138672,-1.3916 -0.9375,-0.9155 -1.428223,-2.1167 -0.490722,-1.2085 -0.490722,-2.5928 0,-1.333 0.498046,-2.5415 0.498047,-1.2085 1.420899,-2.124 0.944824,-0.9302 2.182617,-1.4209 1.237793,-0.4981 2.62207,-0.4981 1.552735,0 2.878418,0.6373 1.333008,0.6372 2.233887,1.809 0.549316,0.7178 0.834961,1.5601 0.292969,0.8423 0.292969,1.7432 0,1.9262 -1.164551,3.0395 -1.164551,1.1133 -3.215332,1.1572 l 0,-1.1279 z"
           style="font-size:15px;letter-spacing:-1px;fill:#2a7ae2;fill-opacity:1"
           id="path4222" />
        <path
           d="m 40.484182,1044.1777 q -1.633301,0 -2.263184,0.3736 -0.629883,0.3735 -0.629883,1.2744 0,0.7178 0.46875,1.1426 0.476074,0.4174 1.289063,0.4174 1.120605,0 1.794433,-0.791 0.681153,-0.7983 0.681153,-2.1167 l 0,-0.3003 -1.340332,0 z m 2.687988,-0.5566 0,4.6802 -1.347656,0 0,-1.2451 q -0.461426,0.747 -1.149903,1.1059 -0.688476,0.3516 -1.68457,0.3516 -1.259766,0 -2.006836,-0.7032 -0.739746,-0.7104 -0.739746,-1.8969 0,-1.3843 0.922851,-2.0874 0.930176,-0.7032 2.768555,-0.7032 l 1.889649,0 0,-0.1318 q 0,-0.9302 -0.615235,-1.4355 -0.60791,-0.5127 -1.713867,-0.5127 -0.703125,0 -1.369629,0.1684 -0.666504,0.1685 -1.281738,0.5054 l 0,-1.2451 q 0.739746,-0.2857 1.435547,-0.4248 0.695801,-0.1465 1.35498,-0.1465 1.779785,0 2.658692,0.9228 0.878906,0.9229 0.878906,2.7979 z"
           style="font-size:15px;letter-spacing:-1px;fill:#2a7ae2;fill-opacity:1"
           id="path4224" />
        <path
           d="m 50.353322,1044.1045 q 0,-1.4649 -0.60791,-2.2705 -0.600586,-0.8057 -1.691894,-0.8057 -1.083985,0 -1.691895,0.8057 -0.600586,0.8056 -0.600586,2.2705 0,1.4575 0.600586,2.2632 0.60791,0.8056 1.691895,0.8056 1.091308,0 1.691894,-0.8056 0.60791,-0.8057 0.60791,-2.2632 z m 1.347656,3.1787 q 0,2.0947 -0.930175,3.1128 -0.930176,1.0254 -2.849121,1.0254 -0.71045,0 -1.340332,-0.1099 -0.629883,-0.1025 -1.223145,-0.3222 l 0,-1.3111 q 0.593262,0.3223 1.171875,0.4761 0.578613,0.1538 1.179199,0.1538 1.325684,0 1.984864,-0.6958 0.659179,-0.6885 0.659179,-2.0874 l 0,-0.6665 q -0.41748,0.7251 -1.069336,1.084 -0.651855,0.3589 -1.560058,0.3589 -1.508789,0 -2.431641,-1.1499 -0.922852,-1.1499 -0.922852,-3.0469 0,-1.9043 0.922852,-3.0542 0.922852,-1.1499 2.431641,-1.1499 0.908203,0 1.560058,0.3589 0.651856,0.3589 1.069336,1.084 l 0,-1.2452 1.347656,0 0,7.1851 z"
           style="font-size:15px;letter-spacing:-1px;fill:#2a7ae2;fill-opacity:1"
           id="path4226" />
        <path
           d="m 53.337697,1045.064 0,-4.9659 1.347656,0 0,4.9146 q 0,1.1645 0.454102,1.7505 0.454102,0.5786 1.362305,0.5786 1.091308,0 1.721191,-0.6958 0.637207,-0.6958 0.637207,-1.897 l 0,-4.6509 1.347656,0 0,8.2032 -1.347656,0 0,-1.2598 q -0.490723,0.7471 -1.142578,1.1133 -0.644531,0.3589 -1.501465,0.3589 -1.413574,0 -2.145996,-0.8789 -0.732422,-0.8789 -0.732422,-2.5708 z m 3.391113,-5.1636 0,0 z"
           style="font-size:15px;letter-spacing:-1px;fill:#2a7ae2;fill-opacity:1"
           id="path4228" />
        <path
           d="m 68.817189,1043.3501 0,4.9512 -1.347656,0 0,-4.9073 q 0,-1.1645 -0.454101,-1.7431 -0.454102,-0.5786 -1.362305,-0.5786 -1.091309,0 -1.721192,0.6958 -0.629882,0.6958 -0.629882,1.8969 l 0,4.6363 -1.354981,0 0,-8.2032 1.354981,0 0,1.2745 q 0.483398,-0.7398 1.135254,-1.106 0.659179,-0.3662 1.516113,-0.3662 1.413574,0 2.138672,0.8789 0.725097,0.8716 0.725097,2.5708 z"
           style="font-size:15px;letter-spacing:-1px;fill:#2a7ae2;fill-opacity:1"
           id="path4230" />
        <path
           d="m 75.917775,1044.1045 q 0,-1.4649 -0.60791,-2.2705 -0.600586,-0.8057 -1.691894,-0.8057 -1.083985,0 -1.691895,0.8057 -0.600586,0.8056 -0.600586,2.2705 0,1.4575 0.600586,2.2632 0.60791,0.8056 1.691895,0.8056 1.091308,0 1.691894,-0.8056 0.60791,-0.8057 0.60791,-2.2632 z m 1.347657,3.1787 q 0,2.0947 -0.930176,3.1128 -0.930176,1.0254 -2.849121,1.0254 -0.71045,0 -1.340332,-0.1099 -0.629883,-0.1025 -1.223145,-0.3222 l 0,-1.3111 q 0.593262,0.3223 1.171875,0.4761 0.578613,0.1538 1.179199,0.1538 1.325684,0 1.984864,-0.6958 0.659179,-0.6885 0.659179,-2.0874 l 0,-0.6665 q -0.41748,0.7251 -1.069336,1.084 -0.651855,0.3589 -1.560058,0.3589 -1.508789,0 -2.431641,-1.1499 -0.922851,-1.1499 -0.922851,-3.0469 0,-1.9043 0.922851,-3.0542 0.922852,-1.1499 2.431641,-1.1499 0.908203,0 1.560058,0.3589 0.651856,0.3589 1.069336,1.084 l 0,-1.2452 1.347657,0 0,7.1851 z"
           style="font-size:15px;letter-spacing:-1px;fill:#2a7ae2;fill-opacity:1"
           id="path4232" />
        <path
           d="m 79.23174,1046.4409 1.54541,0 0,1.8604 -1.54541,0 0,-1.8604 z"
           style="font-size:15px;letter-spacing:-1px;fill:#2a7ae2;fill-opacity:1"
           id="path4234" />
        <path
           d="m 89.635549,1040.0981 -2.966309,3.9917 3.120117,4.2115 -1.589355,0 -2.387695,-3.2227 -2.387696,3.2227 -1.589355,0 3.186035,-4.292 -2.915039,-3.9112 1.589355,0 2.175293,2.9224 2.175293,-2.9224 1.589356,0 z"
           style="font-size:15px;letter-spacing:-1px;fill:#2a7ae2;fill-opacity:1"
           id="path4236" />
        <path
           d="m 94.10674,1049.063 q -0.571289,1.4648 -1.113281,1.9116 -0.541992,0.4468 -1.450195,0.4468 l -1.076661,0 0,-1.1279 0.791016,0 q 0.556641,0 0.864258,-0.2637 0.307617,-0.2637 0.681152,-1.2451 l 0.241699,-0.6153 -3.317871,-8.0713 1.428223,0 2.563477,6.4161 2.563476,-6.4161 1.428223,0 -3.603516,8.9649 z"
           style="font-size:15px;letter-spacing:-1px;fill:#2a7ae2;fill-opacity:1"
           id="path4238" />
        <path
           d="m 97.98467,1040.0981 6.40137,0 0,1.2305 -5.068362,5.896 5.068362,0 0,1.0767 -6.584476,0 0,-1.2305 5.068356,-5.896 -4.88525,0 0,-1.0767 z"
           style="font-size:15px;letter-spacing:-1px;fill:#2a7ae2;fill-opacity:1"
           id="path4240" />
      </g>
    </g>
  </g>
</svg>
